<!DOCTYPE svg PUBLIC "-//W3C//DTD SVG 1.1//EN" "http://www.w3.org/Graphics/SVG/1.1/DTD/svg11.dtd">

<!-- Uploaded to: SVG Repo, www.svgrepo.com, Transformed by: SVG Repo Mixer Tools -->
<svg version="1.1" id="Uploaded to svgrepo.com" xmlns="http://www.w3.org/2000/svg" xmlns:xlink="http://www.w3.org/1999/xlink" width="800px" height="800px" viewBox="0 0 32 32" xml:space="preserve" fill="#000000" stroke="#000000">

<g id="SVGRepo_bgCarrier" stroke-width="0"/>

<g id="SVGRepo_tracerCarrier" stroke-linecap="round" stroke-linejoin="round"/>

<g id="SVGRepo_iconCarrier"> <style type="text/css"> .stone_een{fill:#dbac00;} </style> <path class="stone_een" d="M18.211,14.894c0.737-0.369,0.737-1.42,0-1.789L14,11l-2.106-4.211C11.71,6.42,11.355,6.236,11,6.236 s-0.71,0.184-0.894,0.553L8,11l-4.211,2.106c-0.737,0.369-0.737,1.42,0,1.789L8,17l2.106,4.211c0.184,0.369,0.539,0.553,0.894,0.553 s0.71-0.184,0.894-0.553L14,17L18.211,14.894z M27.679,7.072L25,6l-1.072-2.679C23.761,2.902,23.38,2.693,23,2.693 s-0.761,0.21-0.928,0.629L21,6l-2.679,1.072c-0.838,0.335-0.838,1.522,0,1.857L21,10l1.072,2.679 c0.168,0.419,0.548,0.629,0.928,0.629s0.761-0.21,0.928-0.629L25,10l2.679-1.072C28.517,8.593,28.517,7.407,27.679,7.072z M22.679,24.072L20,23l-1.072-2.679c-0.168-0.419-0.548-0.629-0.928-0.629s-0.761,0.21-0.928,0.629L16,23l-2.679,1.072 c-0.838,0.335-0.838,1.522,0,1.857L16,27l1.072,2.679c0.168,0.419,0.548,0.629,0.928,0.629s0.761-0.21,0.928-0.629L20,27 l2.679-1.072C23.517,25.593,23.517,24.407,22.679,24.072z M27.195,17.598L26,17l-0.598-1.195C25.32,15.639,25.16,15.556,25,15.556 s-0.32,0.083-0.403,0.249L24,17l-1.195,0.598c-0.332,0.166-0.332,0.639,0,0.805L24,19l0.597,1.195 c0.083,0.166,0.243,0.249,0.403,0.249s0.32-0.083,0.402-0.249L26,19l1.195-0.597C27.527,18.237,27.527,17.763,27.195,17.598z M12.805,4.403L14,5l0.597,1.195C14.68,6.361,14.84,6.444,15,6.444s0.32-0.083,0.402-0.249L16,5l1.195-0.597 c0.332-0.166,0.332-0.639,0-0.805L16,3l-0.598-1.195C15.32,1.639,15.16,1.556,15,1.556s-0.32,0.083-0.403,0.249L14,3l-1.195,0.598 C12.473,3.763,12.473,4.237,12.805,4.403z M9.195,24.598L8,24l-0.598-1.195C7.32,22.639,7.16,22.556,7,22.556 s-0.32,0.083-0.403,0.249L6,24l-1.195,0.598c-0.332,0.166-0.332,0.639,0,0.805L6,26l0.597,1.195C6.68,27.361,6.84,27.444,7,27.444 s0.32-0.083,0.402-0.249L8,26l1.195-0.597C9.527,25.237,9.527,24.763,9.195,24.598z"/> </g>

</svg>